<svg width="25" height="24" viewBox="0 0 25 24" fill="none" xmlns="http://www.w3.org/2000/svg">
<path d="M12.47 2H12.03C11.4996 2 10.9909 2.21071 10.6158 2.58579C10.2407 2.96086 10.03 3.46957 10.03 4V4.18C10.0296 4.53073 9.93706 4.87519 9.76154 5.17884C9.58602 5.48248 9.33374 5.73464 9.03 5.91L8.6 6.16C8.29596 6.33554 7.95107 6.42795 7.6 6.42795C7.24893 6.42795 6.90404 6.33554 6.6 6.16L6.45 6.08C5.99107 5.81526 5.44584 5.74344 4.934 5.88031C4.42217 6.01717 3.98555 6.35154 3.72 6.81L3.5 7.19C3.23526 7.64893 3.16345 8.19416 3.30031 8.706C3.43717 9.21783 3.77154 9.65445 4.23 9.92L4.38 10.02C4.68228 10.1945 4.93362 10.4451 5.10905 10.7468C5.28448 11.0486 5.3779 11.391 5.38 11.74V12.25C5.3814 12.6024 5.28965 12.949 5.11405 13.2545C4.93844 13.5601 4.68521 13.8138 4.38 13.99L4.23 14.08C3.77154 14.3455 3.43717 14.7822 3.30031 15.294C3.16345 15.8058 3.23526 16.3511 3.5 16.81L3.72 17.19C3.98555 17.6485 4.42217 17.9828 4.934 18.1197C5.44584 18.2566 5.99107 18.1847 6.45 17.92L6.6 17.84C6.90404 17.6645 7.24893 17.572 7.6 17.572C7.95107 17.572 8.29596 17.6645 8.6 17.84L9.03 18.09C9.33374 18.2654 9.58602 18.5175 9.76154 18.8212C9.93706 19.1248 10.0296 19.4693 10.03 19.82V20C10.03 20.5304 10.2407 21.0391 10.6158 21.4142C10.9909 21.7893 11.4996 22 12.03 22H12.47C13.0004 22 13.5091 21.7893 13.8842 21.4142C14.2593 21.0391 14.47 20.5304 14.47 20V19.82C14.4704 19.4693 14.5629 19.1248 14.7385 18.8212C14.914 18.5175 15.1663 18.2654 15.47 18.09L15.9 17.84C16.204 17.6645 16.5489 17.572 16.9 17.572C17.2511 17.572 17.596 17.6645 17.9 17.84L18.05 17.92C18.5089 18.1847 19.0542 18.2566 19.566 18.1197C20.0778 17.9828 20.5144 17.6485 20.78 17.19L21 16.8C21.2647 16.3411 21.3366 15.7958 21.1997 15.284C21.0628 14.7722 20.7285 14.3355 20.27 14.07L20.12 13.99C19.8148 13.8138 19.5616 13.5601 19.386 13.2545C19.2103 12.949 19.1186 12.6024 19.12 12.25V11.75C19.1186 11.3976 19.2103 11.051 19.386 10.7455C19.5616 10.4399 19.8148 10.1862 20.12 10.01L20.27 9.92C20.7285 9.65445 21.0628 9.21783 21.1997 8.706C21.3366 8.19416 21.2647 7.64893 21 7.19L20.78 6.81C20.5144 6.35154 20.0778 6.01717 19.566 5.88031C19.0542 5.74344 18.5089 5.81526 18.05 6.08L17.9 6.16C17.596 6.33554 17.2511 6.42795 16.9 6.42795C16.5489 6.42795 16.204 6.33554 15.9 6.16L15.47 5.91C15.1663 5.73464 14.914 5.48248 14.7385 5.17884C14.5629 4.87519 14.4704 4.53073 14.47 4.18V4C14.47 3.46957 14.2593 2.96086 13.8842 2.58579C13.5091 2.21071 13.0004 2 12.47 2Z" stroke-opacity="0.32" stroke-width="1.5" stroke-linecap="round" stroke-linejoin="round"/>
<path d="M12.25 15C13.9069 15 15.25 13.6569 15.25 12C15.25 10.3431 13.9069 9 12.25 9C10.5931 9 9.25 10.3431 9.25 12C9.25 13.6569 10.5931 15 12.25 15Z" stroke-opacity="0.32" stroke-width="1.5" stroke-linecap="round" stroke-linejoin="round"/>
</svg>
