<svg width="25" height="24" viewBox="0 0 25 24" fill="none" xmlns="http://www.w3.org/2000/svg">
<path d="M19.75 6.99994V3.99994C19.75 3.73472 19.6446 3.48037 19.4571 3.29283C19.2696 3.1053 19.0152 2.99994 18.75 2.99994H5.75C5.21957 2.99994 4.71086 3.21065 4.33579 3.58573C3.96071 3.9608 3.75 4.46951 3.75 4.99994C3.75 5.53037 3.96071 6.03908 4.33579 6.41415C4.71086 6.78923 5.21957 6.99994 5.75 6.99994H20.75C21.0152 6.99994 21.2696 7.1053 21.4571 7.29283C21.6446 7.48037 21.75 7.73472 21.75 7.99994V11.9999M21.75 11.9999H18.75C18.2196 11.9999 17.7109 12.2107 17.3358 12.5857C16.9607 12.9608 16.75 13.4695 16.75 13.9999C16.75 14.5304 16.9607 15.0391 17.3358 15.4142C17.7109 15.7892 18.2196 15.9999 18.75 15.9999H21.75C22.0152 15.9999 22.2696 15.8946 22.4571 15.707C22.6446 15.5195 22.75 15.2652 22.75 14.9999V12.9999C22.75 12.7347 22.6446 12.4804 22.4571 12.2928C22.2696 12.1053 22.0152 11.9999 21.75 11.9999Z"  stroke-opacity="0.32" stroke-width="1.5" stroke-linecap="round" stroke-linejoin="round"/>
<path d="M3.75 5V19C3.75 19.5304 3.96071 20.0391 4.33579 20.4142C4.71086 20.7893 5.21957 21 5.75 21H20.75C21.0152 21 21.2696 20.8946 21.4571 20.7071C21.6446 20.5196 21.75 20.2652 21.75 20V16"  stroke-opacity="0.32" stroke-width="1.5" stroke-linecap="round" stroke-linejoin="round"/>
</svg>
