<svg width="350" height="346" viewBox="0 0 350 346" fill="none" xmlns="http://www.w3.org/2000/svg">
<g clip-path="url(#clip0_6530_739)">
<path d="M174 312.56C281.082 312.56 367.89 307.492 367.89 301.24C367.89 294.988 281.082 289.92 174 289.92C66.9174 289.92 -19.8901 294.988 -19.8901 301.24C-19.8901 307.492 66.9174 312.56 174 312.56Z" fill="#F5F5F5"/>
<path d="M81.61 132.44L80.69 132.05C81.4131 130.462 81.9016 128.778 82.14 127.05L83.14 127.16C82.8895 128.985 82.3741 130.764 81.61 132.44ZM81.22 121C80.2898 118.922 78.8428 117.117 77.017 115.757C75.1912 114.396 73.0474 113.527 70.79 113.23L70.95 112.23C73.3713 112.552 75.6698 113.488 77.6268 114.95C79.5838 116.412 81.1341 118.35 82.1301 120.58L81.22 121Z" fill="#FFC100"/>
<path d="M76 142.5L66.14 147L65.7 146C65.0256 144.641 64.5893 143.176 64.41 141.67C64.3149 140.443 64.4471 139.209 64.8 138.03C65.6536 135.682 66.6556 133.391 67.8 131.17C68.68 129.39 68.9033 128.027 68.47 127.08C68.3092 126.661 68.0611 126.281 67.7421 125.966C67.4231 125.65 67.0406 125.406 66.62 125.25C65.6381 125 64.5982 125.132 63.71 125.62C63.1393 125.863 62.6241 126.219 62.1959 126.668C61.7678 127.117 61.4357 127.648 61.22 128.23C60.7867 129.397 60.92 131.043 61.62 133.17L51 136.49C49.6719 133.03 49.6719 129.2 51 125.74C52.3333 122.407 55.4067 119.65 60.22 117.47C63.98 115.75 67.38 115.16 70.41 115.67C72.2666 115.894 74.0329 116.597 75.5354 117.711C77.0379 118.824 78.225 120.309 78.98 122.02C79.655 123.524 79.9041 125.184 79.7 126.82C79.2169 129.375 78.304 131.83 77 134.08C76.1232 135.571 75.5203 137.207 75.22 138.91C75.1779 140.153 75.446 141.387 76 142.5ZM67 149.74L77.54 145L81.77 154.29L71.23 159L67 149.74Z" fill="#FFC100"/>
<path d="M51.6402 164.73L46.6402 171.53L46.0002 171C45.025 170.324 44.1699 169.489 43.4702 168.53C42.9389 167.731 42.5624 166.838 42.3602 165.9C42.0372 163.979 41.8467 162.037 41.7902 160.09C41.7102 158.54 41.3402 157.53 40.6902 157.09C40.417 156.858 40.0965 156.689 39.751 156.594C39.4056 156.499 39.0435 156.481 38.6902 156.54C37.925 156.74 37.2662 157.227 36.8502 157.9C36.5524 158.281 36.3358 158.719 36.2137 159.187C36.0916 159.654 36.0666 160.142 36.1402 160.62C36.4875 161.899 37.2424 163.029 38.2902 163.84L32.2902 170.15C30.0685 168.297 28.6057 165.692 28.1802 162.83C27.8136 160.07 28.8602 157.02 31.3202 153.68C32.8459 151.391 35.028 149.617 37.5802 148.59C38.9302 148.032 40.4023 147.837 41.851 148.023C43.2997 148.209 44.6748 148.77 45.8402 149.65C46.8749 150.417 47.6777 151.456 48.1602 152.65C48.8021 154.584 49.1131 156.612 49.0802 158.65C49.0458 160.01 49.2558 161.365 49.7002 162.65C50.1629 163.495 50.8299 164.21 51.6402 164.73ZM48.2702 173.09L53.6302 165.81L60.0502 170.54L54.6902 177.82L48.2702 173.09Z" fill="#FFC100"/>
<path d="M158.09 297.64C157.264 297.641 156.455 297.415 155.749 296.986C155.044 296.557 154.47 295.943 154.09 295.21C150.09 287.45 145.02 278.34 135.94 268.48C135.417 267.914 135.05 267.222 134.875 266.472C134.699 265.722 134.722 264.939 134.94 264.2C138.31 252.49 143.61 236.48 143.66 236.32C143.829 235.742 144.113 235.203 144.495 234.737C144.877 234.27 145.349 233.886 145.883 233.606C146.417 233.326 147.001 233.156 147.602 233.107C148.203 233.058 148.807 233.13 149.38 233.319C149.952 233.509 150.48 233.811 150.933 234.209C151.386 234.607 151.754 235.092 152.015 235.635C152.276 236.179 152.426 236.769 152.454 237.371C152.482 237.973 152.389 238.575 152.18 239.14C152.13 239.29 147.56 253.08 144.25 264.29C151.306 272.429 157.295 281.435 162.07 291.09C162.421 291.776 162.59 292.54 162.561 293.309C162.532 294.079 162.306 294.828 161.904 295.485C161.503 296.143 160.94 296.686 160.268 297.063C159.597 297.44 158.84 297.639 158.07 297.64H158.09Z" fill="#FFC100"/>
<path d="M165.56 301.24H130.77L149.21 290.78L164.66 291.38L165.56 301.24Z" fill="#263238"/>
<path d="M162.239 259.093C178.074 254.142 187.584 239.489 183.481 226.364C179.378 213.238 163.215 206.611 147.38 211.561C131.545 216.511 122.034 231.164 126.138 244.29C130.241 257.415 146.404 264.043 162.239 259.093Z" fill="#263238"/>
<path d="M75.6499 219C74.6144 218.996 73.6123 218.634 72.8131 217.976C72.0139 217.317 71.4667 216.403 71.2643 215.388C71.062 214.372 71.2168 213.318 71.7025 212.404C72.1883 211.489 72.9751 210.771 73.9299 210.37C74.707 210.045 75.3894 209.529 75.9139 208.87C76.4384 208.211 76.7878 207.43 76.9299 206.6C77.0195 205.624 77.4271 204.703 78.09 203.981C78.753 203.258 79.6347 202.773 80.5999 202.6C81.7136 202.373 82.815 202.089 83.8999 201.75C89.9799 199.98 97.5099 197.75 121.21 204.41C144.59 191.34 144.86 166.82 144.86 165.76C144.86 164.572 145.33 163.432 146.167 162.589C147.005 161.746 148.142 161.268 149.33 161.26C150.514 161.26 151.65 161.728 152.491 162.561C153.332 163.394 153.809 164.526 153.82 165.71C153.82 167.02 153.68 197.8 123.82 213.21C122.802 213.738 121.62 213.852 120.52 213.53C97.9199 207.01 91.5199 208.87 86.4499 210.36L85.0699 210.76C84.4027 212.527 83.3806 214.139 82.0667 215.496C80.7527 216.853 79.1746 217.926 77.4299 218.65C76.8664 218.886 76.2608 219.005 75.6499 219Z" fill="#263238"/>
<path d="M128.08 186.89C119.57 153.07 96.8998 65.83 169.55 60.5C234.73 55.71 252.61 142.5 256.96 172.5C259.138 187.68 260.32 202.986 260.5 218.32C260.583 226.077 257.954 233.619 253.069 239.644C248.183 245.669 241.346 249.799 233.74 251.32C198.23 258.54 164.63 259.56 141.99 250.63C139.016 249.43 136.511 247.3 134.847 244.559C133.183 241.818 132.451 238.612 132.76 235.42C133.63 225.74 133.65 209 128.08 186.89Z" fill="#FFC100"/>
<path opacity="0.1" d="M257 172.52C252.9 144.2 236.78 65.5199 180.34 60.5199C177.12 60.1935 173.876 60.8275 171.017 62.3419C168.157 63.8563 165.809 66.1834 164.27 69.0299C161.75 73.9099 161.83 79.8199 165.6 85.6699C178 105 207.67 171.67 203.19 208C201.19 224.53 190.78 237.73 199.8 256.31C211.202 255.312 222.535 253.642 233.74 251.31C241.346 249.789 248.183 245.659 253.069 239.634C257.955 233.609 260.583 226.067 260.5 218.31C260.332 202.987 259.163 187.691 257 172.52Z" fill="black"/>
<path d="M247.24 218.79C247.123 218.79 247.01 218.744 246.925 218.662C246.841 218.579 246.793 218.468 246.79 218.35C246.62 203.036 245.441 187.749 243.26 172.59C232.46 97.93 203.39 60.18 159.16 63.44C159.101 63.4441 159.042 63.4364 158.986 63.4175C158.929 63.3986 158.878 63.3687 158.833 63.3297C158.788 63.2907 158.752 63.2432 158.726 63.1901C158.699 63.1369 158.684 63.0791 158.68 63.02C158.675 62.9012 158.715 62.7849 158.794 62.6954C158.872 62.6059 158.982 62.5502 159.1 62.54C203.85 59.24 233.27 97.26 244.1 172.46C246.279 187.66 247.462 202.986 247.64 218.34C247.64 218.459 247.593 218.574 247.508 218.658C247.424 218.743 247.31 218.79 247.19 218.79H247.24Z" fill="#263238"/>
<path d="M246.561 261.475C262.396 256.524 271.906 241.871 267.803 228.746C263.7 215.62 247.537 208.993 231.702 213.943C215.867 218.893 206.357 233.547 210.46 246.672C214.563 259.798 230.726 266.425 246.561 261.475Z" fill="#263238"/>
<path d="M249.3 297.64C248.474 297.642 247.664 297.416 246.958 296.987C246.253 296.559 245.679 295.944 245.3 295.21C241.3 287.45 236.23 278.34 227.14 268.48C226.621 267.912 226.257 267.22 226.082 266.47C225.907 265.721 225.927 264.939 226.14 264.2C229.52 252.49 234.81 236.48 234.87 236.32C235.055 235.761 235.349 235.244 235.733 234.799C236.118 234.354 236.587 233.989 237.113 233.724C237.639 233.46 238.212 233.302 238.799 233.259C239.386 233.217 239.976 233.29 240.535 233.475C241.094 233.66 241.611 233.954 242.056 234.339C242.501 234.723 242.867 235.192 243.131 235.718C243.395 236.244 243.553 236.817 243.596 237.404C243.638 237.992 243.565 238.581 243.38 239.14C243.33 239.29 238.77 253.08 235.46 264.29C242.517 272.426 248.502 281.433 253.27 291.09C253.621 291.776 253.79 292.54 253.761 293.309C253.732 294.079 253.506 294.828 253.105 295.485C252.703 296.143 252.14 296.686 251.468 297.063C250.797 297.44 250.04 297.639 249.27 297.64H249.3Z" fill="#FFC100"/>
<path d="M239.88 160.91C238.877 160.911 237.902 160.575 237.112 159.958C236.322 159.34 235.761 158.475 235.519 157.502C235.278 156.528 235.369 155.502 235.779 154.586C236.188 153.671 236.893 152.919 237.78 152.45C238.64 151.99 258.17 141.32 263.65 115.68C250.65 110.24 227.23 97.9501 222.11 91.7701C221.606 91.1725 221.262 90.4569 221.11 89.6901C220.518 85.9975 220.862 82.2155 222.11 78.6901L219.75 74.1301C219.203 73.0692 219.101 71.8348 219.465 70.6983C219.829 69.5618 220.629 68.6164 221.69 68.0701C222.751 67.5238 223.985 67.4212 225.122 67.785C226.258 68.1488 227.203 68.9492 227.75 70.0101L231.14 76.5701C231.505 77.2567 231.684 78.0266 231.659 78.8037C231.634 79.5808 231.407 80.3379 231 81.0001C230.085 82.8278 229.697 84.8743 229.88 86.9101C235.65 92.1201 258.88 104.45 270.31 108.68C271.279 109.039 272.094 109.722 272.617 110.613C273.14 111.504 273.339 112.549 273.18 113.57C268.11 146.34 243.04 159.84 241.98 160.4C241.332 160.739 240.611 160.914 239.88 160.91Z" fill="#263238"/>
<path d="M225.57 91.15C225.167 91.1481 224.771 91.0378 224.425 90.8305C224.079 90.6232 223.794 90.3267 223.602 89.9719C223.41 89.6171 223.317 89.2171 223.332 88.8139C223.348 88.4107 223.471 88.0191 223.69 87.68C223.85 87.44 227.55 81.85 233.19 80.34C233.474 80.2639 233.771 80.2444 234.063 80.2829C234.355 80.3213 234.636 80.4168 234.891 80.564C235.146 80.7112 235.369 80.9071 235.548 81.1407C235.727 81.3742 235.859 81.6407 235.935 81.925C236.011 82.2093 236.031 82.5059 235.992 82.7977C235.954 83.0895 235.858 83.3709 235.711 83.6258C235.564 83.8807 235.368 84.1041 235.134 84.2833C234.901 84.4624 234.634 84.5939 234.35 84.67C230.42 85.73 227.47 90.09 227.45 90.13C227.247 90.4433 226.968 90.7008 226.64 90.8789C226.311 91.057 225.944 91.1502 225.57 91.15Z" fill="#263238"/>
<path d="M256.77 301.24H221.98L240.42 290.78L255.87 291.38L256.77 301.24Z" fill="#263238"/>
<path d="M183.918 167.253C197.077 166.088 206.894 155.542 205.845 143.698C204.797 131.853 193.279 123.196 180.12 124.361C166.961 125.526 157.143 136.073 158.192 147.917C159.241 159.761 170.758 168.419 183.918 167.253Z" fill="white"/>
<path d="M179.448 159.446C182.938 158.452 184.3 152.497 182.49 146.144C180.68 139.791 176.384 135.447 172.895 136.442C169.405 137.436 168.043 143.391 169.853 149.744C171.662 156.097 175.958 160.44 179.448 159.446Z" fill="#263238"/>
<path d="M154.8 149.86C169.9 147.92 199.8 139.39 204.73 135.95C200.85 124.59 182.73 114.87 166.61 120.35C152 125.28 154.8 149.86 154.8 149.86Z" fill="#263238"/>
<path d="M157.73 157.16C176.48 153.6 200.85 147.62 207.82 143.79C207.39 156.01 203.82 168.4 184.7 172.59C169.06 176 157.73 157.16 157.73 157.16Z" fill="#263238"/>
<path d="M142.285 168.906C149.065 164.421 149.959 153.828 144.282 145.247C138.604 136.666 128.505 133.346 121.725 137.832C114.945 142.318 114.052 152.911 119.729 161.492C125.407 170.073 135.505 173.392 142.285 168.906Z" fill="white"/>
<path d="M132.34 153.68C133.47 159.04 132.49 163.51 130.14 163.68C127.79 163.85 124.97 159.62 123.83 154.26C122.69 148.9 123.68 144.44 126.02 144.26C128.36 144.08 131.2 148.32 132.34 153.68Z" fill="#263238"/>
<path d="M113.75 151.63C123.88 152.82 144 151.49 147.34 149.63C144.87 140 132.89 129 122 130.4C112.18 131.66 113.75 151.63 113.75 151.63Z" fill="#263238"/>
<path d="M115.63 157.94C128.22 158.51 144.63 158.19 149.31 156.42C148.88 166.03 146.36 175.19 133.5 175.04C123 174.92 115.63 157.94 115.63 157.94Z" fill="#263238"/>
<path d="M188.09 114.3C176.647 114.362 165.456 110.945 156 104.5C155.052 103.783 154.428 102.718 154.265 101.54C154.101 100.362 154.413 99.1681 155.13 98.2199C155.848 97.2718 156.912 96.6475 158.09 96.4843C159.268 96.3212 160.462 96.6325 161.41 97.35C171.993 104.252 184.834 106.799 197.25 104.46C197.829 104.35 198.423 104.356 198.999 104.476C199.576 104.596 200.123 104.828 200.61 105.16C201.096 105.491 201.513 105.915 201.835 106.408C202.158 106.9 202.381 107.451 202.49 108.03C202.6 108.608 202.595 109.203 202.474 109.779C202.354 110.356 202.122 110.903 201.79 111.389C201.459 111.876 201.035 112.292 200.542 112.615C200.05 112.938 199.499 113.16 198.92 113.27C195.35 113.949 191.724 114.294 188.09 114.3Z" fill="#263238"/>
<path d="M107.88 106.57C107.162 106.566 106.456 106.391 105.819 106.059C105.183 105.726 104.635 105.246 104.222 104.659C103.809 104.072 103.542 103.394 103.445 102.683C103.347 101.971 103.421 101.247 103.66 100.57C106.03 93.95 109.98 89.66 115.38 87.8C125.16 84.43 135.7 90.98 136.15 91.26C137.132 91.9055 137.822 92.9103 138.072 94.0588C138.322 95.2074 138.111 96.408 137.485 97.4029C136.86 98.3978 135.869 99.1077 134.725 99.3801C133.582 99.6526 132.377 99.4658 131.37 98.86C129.37 97.59 123 94.65 118.27 96.29C115.55 97.24 113.53 99.63 112.1 103.61C111.786 104.477 111.212 105.226 110.457 105.756C109.702 106.286 108.802 106.57 107.88 106.57Z" fill="#263238"/>
<path d="M143.23 182.25C143.104 182.25 142.98 182.229 142.86 182.19C142.521 182.094 142.233 181.868 142.061 181.56C141.888 181.253 141.845 180.889 141.94 180.55C142.338 179.468 142.945 178.476 143.728 177.63C144.51 176.783 145.453 176.1 146.5 175.62C151.64 172.97 159.5 173.52 169.81 177.25C169.977 177.31 170.13 177.403 170.261 177.523C170.391 177.642 170.497 177.787 170.571 177.948C170.646 178.109 170.688 178.283 170.694 178.46C170.701 178.637 170.672 178.814 170.61 178.98C170.551 179.146 170.459 179.299 170.341 179.43C170.222 179.56 170.078 179.666 169.918 179.741C169.758 179.815 169.584 179.857 169.408 179.864C169.232 179.87 169.056 179.842 168.89 179.78C157.06 175.5 150.89 176.42 147.89 177.96C146.392 178.595 145.201 179.79 144.57 181.29C144.484 181.576 144.306 181.825 144.064 181.998C143.821 182.172 143.528 182.26 143.23 182.25Z" fill="#263238"/>
<path d="M100.88 177.32C85.2329 178.71 70.0146 183.179 56.1001 190.47C63.8201 189.01 91.4501 223.2 98.5501 249.56C111.66 244.71 126.94 241.4 143.23 238.81C133.36 211.64 115.31 180.85 100.88 177.32Z" fill="#FFC100"/>
<path opacity="0.6" d="M100.88 177.32C85.2329 178.71 70.0146 183.179 56.1001 190.47C63.8201 189.01 91.4501 223.2 98.5501 249.56C111.66 244.71 126.94 241.4 143.23 238.81C133.36 211.64 115.31 180.85 100.88 177.32Z" fill="white"/>
<path d="M100.88 177.32C83.8 175.39 56.07 189.69 56.07 189.69C51.16 192.82 52.49 198.69 55.17 201.18C57.74 197.49 86.4 187.89 97.17 186.6C91.82 181.64 96.8 178 100.88 177.32Z" fill="#FFC100"/>
<path opacity="0.2" d="M100.88 177.32C83.8 175.39 56.07 189.69 56.07 189.69C51.16 192.82 52.49 198.69 55.17 201.18C57.74 197.49 86.4 187.89 97.17 186.6C91.82 181.64 96.8 178 100.88 177.32Z" fill="white"/>
<path d="M75.6601 219C74.9156 219.003 74.1819 218.822 73.5242 218.473C72.8665 218.124 72.3052 217.618 71.8901 217C68.6401 212 70.6701 204.41 71.1101 202.93C71.4849 201.832 72.27 200.922 73.3009 200.39C74.3318 199.858 75.5285 199.746 76.6403 200.077C77.7521 200.408 78.6927 201.157 79.2649 202.166C79.8372 203.175 79.9967 204.366 79.7101 205.49C78.9801 208 78.8301 211.21 79.4101 212.09C80.0593 213.087 80.286 214.302 80.0403 215.466C79.7947 216.631 79.0969 217.65 78.1001 218.3C77.3737 218.769 76.5247 219.013 75.6601 219Z" fill="#263238"/>
</g>
<defs>
<clipPath id="clip0_6530_739">
<rect width="350" height="346" fill="white"/>
</clipPath>
</defs>
</svg>
