<svg width="28" height="28" viewBox="0 0 28 28" fill="none" xmlns="http://www.w3.org/2000/svg">
<path d="M23.625 4.37496V24.5C23.625 24.732 23.5328 24.9546 23.3687 25.1187C23.2046 25.2828 22.9821 25.375 22.75 25.375C22.5179 25.375 22.2954 25.2828 22.1313 25.1187C21.9672 24.9546 21.875 24.732 21.875 24.5V19.25H16.625C16.3929 19.25 16.1704 19.1578 16.0063 18.9937C15.8422 18.8296 15.75 18.607 15.75 18.375C15.7906 16.279 16.0554 14.1934 16.5397 12.1537C17.6094 7.72512 19.6372 4.75668 22.4055 3.57105C22.5385 3.51406 22.6836 3.49096 22.8278 3.50384C22.972 3.51671 23.1107 3.56515 23.2316 3.64481C23.3524 3.72448 23.4516 3.83288 23.5203 3.96031C23.589 4.08774 23.6249 4.23021 23.625 4.37496ZM13.113 4.23168C13.0958 4.11679 13.056 4.00645 12.9958 3.90712C12.9355 3.80779 12.8561 3.72144 12.7622 3.65312C12.6682 3.58479 12.5616 3.53586 12.4486 3.50917C12.3355 3.48248 12.2183 3.47857 12.1037 3.49767C11.9891 3.51677 11.8795 3.55849 11.7812 3.6204C11.6829 3.68232 11.5979 3.76318 11.5312 3.85828C11.4645 3.95338 11.4174 4.06081 11.3926 4.17431C11.3679 4.2878 11.366 4.40509 11.387 4.51934L12.238 9.62496H9.625V4.37496C9.625 4.1429 9.53281 3.92034 9.36872 3.75624C9.20462 3.59215 8.98206 3.49996 8.75 3.49996C8.51794 3.49996 8.29538 3.59215 8.13128 3.75624C7.96719 3.92034 7.875 4.1429 7.875 4.37496V9.62496H5.26203L6.11297 4.51934C6.13402 4.40509 6.13211 4.2878 6.10736 4.17431C6.08261 4.06081 6.0355 3.95338 5.96879 3.85828C5.90208 3.76318 5.8171 3.68232 5.71881 3.6204C5.62052 3.55849 5.51089 3.51677 5.39631 3.49767C5.28172 3.47857 5.16448 3.48248 5.05143 3.50917C4.93837 3.53586 4.83176 3.58479 4.73781 3.65312C4.64386 3.72144 4.56446 3.80779 4.50424 3.90712C4.44401 4.00645 4.40417 4.11679 4.38703 4.23168L3.51203 9.48168C3.50418 9.52904 3.50016 9.57695 3.5 9.62496C3.50175 10.8651 3.94179 12.0646 4.74236 13.0117C5.54293 13.9588 6.65249 14.5924 7.875 14.8006V24.5C7.875 24.732 7.96719 24.9546 8.13128 25.1187C8.29538 25.2828 8.51794 25.375 8.75 25.375C8.98206 25.375 9.20462 25.2828 9.36872 25.1187C9.53281 24.9546 9.625 24.732 9.625 24.5V14.8006C10.8475 14.5924 11.9571 13.9588 12.7576 13.0117C13.5582 12.0646 13.9983 10.8651 14 9.62496C13.9998 9.57695 13.9958 9.52904 13.988 9.48168L13.113 4.23168Z"/>
</svg>
